<?xml version="1.0" encoding="UTF-8" standalone="yes"?>
<!-- Created with sK1/UniConvertor (http://sk1project.org/) -->
<svg xmlns="http://www.w3.org/2000/svg" xmlns:xlink="http://www.w3.org/1999/xlink"
  width="595.276pt" height="841.89pt" viewBox="0 0 595.276 841.89"
  fill-rule="evenodd">
<g>
<path style="stroke:#000000; stroke-width:0.72; fill:none" d="M 295.5 1027.89L 295.5 1069.89L 160.5 1148.89L 25.5 1071.89L 25.5 1027.89L 43.5 1037.89L 43.5 1058.89L 160.5 1125.89L 276.5 1058.89L 276.5 1037.89L 295.5 1027.89"/>
<path style="stroke:#000000; stroke-width:0.72; fill:none" d="M 295.5 963.39L 295.5 1005.39L 160.5 1084.39L 25.5 1007.39L 25.5 963.39L 43.5 973.39L 43.5 994.39L 160.5 1061.39L 276.5 994.39L 276.5 973.39L 295.5 963.39"/>
<path style="stroke:#000000; stroke-width:0.72; fill:none" d="M 295.5 928.39L 295.5 940.39L 160.5 1018.39L 25.5 940.39L 25.5 928.39L 160.5 850.39L 295.5 928.39"/>
<path style="stroke:#000000; stroke-width:0.72; fill:none" d="M 160.5 994.39L 265.5 934.39L 213.5 904.39L 160.5 934.39L 106.5 904.39L 54.5 934.39L 160.5 994.39"/>
<path style="stroke:#000000; stroke-width:0.72; fill:none" d="M 25.5 928.39L 160.5 850.39"/>
<path style="stroke:#000000; stroke-width:0.72; fill:none" d="M 25.5 928.39L 25.5 940.39"/>
<path style="stroke:#000000; stroke-width:0.72; fill:none" d="M 160.5 1018.39L 25.5 940.39"/>
<path style="stroke:#000000; stroke-width:0.72; fill:none" d="M 295.5 940.39L 160.5 1018.39"/>
<path style="stroke:#000000; stroke-width:0.72; fill:none" d="M 295.5 928.39L 295.5 940.39"/>
<path style="stroke:#000000; stroke-width:0.72; fill:none" d="M 160.5 850.39L 295.5 928.39"/>
<path style="stroke:#000000; stroke-width:0.72; fill:none" d="M 276.5 973.39L 295.5 963.39"/>
<path style="stroke:#000000; stroke-width:0.72; fill:none" d="M 295.5 1005.39L 295.5 963.39"/>
<path style="stroke:#000000; stroke-width:0.72; fill:none" d="M 160.5 1084.39L 295.5 1005.39"/>
<path style="stroke:#000000; stroke-width:0.72; fill:none" d="M 25.5 1007.39L 160.5 1084.39"/>
<path style="stroke:#000000; stroke-width:0.72; fill:none" d="M 25.5 963.39L 25.5 1007.39"/>
<path style="stroke:#000000; stroke-width:0.72; fill:none" d="M 43.5 973.39L 25.5 963.39"/>
<path style="stroke:#000000; stroke-width:0.72; fill:none" d="M 43.5 994.39L 43.5 973.39"/>
<path style="stroke:#000000; stroke-width:0.72; fill:none" d="M 160.5 1061.39L 43.5 994.39"/>
<path style="stroke:#000000; stroke-width:0.72; fill:none" d="M 276.5 994.39L 160.5 1061.39"/>
<path style="stroke:#000000; stroke-width:0.72; fill:none" d="M 276.5 973.39L 276.5 994.39"/>
<path style="stroke:#000000; stroke-width:0.72; fill:none" d="M 106.5 904.39L 54.5 934.39"/>
<path style="stroke:#000000; stroke-width:0.72; fill:none" d="M 160.5 994.39L 54.5 934.39"/>
<path style="stroke:#000000; stroke-width:0.72; fill:none" d="M 265.5 934.39L 160.5 994.39"/>
<path style="stroke:#000000; stroke-width:0.72; fill:none" d="M 213.5 904.39L 265.5 934.39"/>
<path style="stroke:#000000; stroke-width:0.72; fill:none" d="M 276.5 1037.89L 295.5 1027.89"/>
<path style="stroke:#000000; stroke-width:0.72; fill:none" d="M 295.5 1069.89L 295.5 1027.89"/>
<path style="stroke:#000000; stroke-width:0.72; fill:none" d="M 160.5 1148.89L 295.5 1069.89"/>
<path style="stroke:#000000; stroke-width:0.72; fill:none" d="M 25.5 1071.89L 160.5 1148.89"/>
<path style="stroke:#000000; stroke-width:0.72; fill:none" d="M 25.5 1027.89L 25.5 1071.89"/>
<path style="stroke:#000000; stroke-width:0.72; fill:none" d="M 43.5 1037.89L 25.5 1027.89"/>
<path style="stroke:#000000; stroke-width:0.72; fill:none" d="M 43.5 1058.89L 43.5 1037.89"/>
<path style="stroke:#000000; stroke-width:0.72; fill:none" d="M 160.5 1125.89L 43.5 1058.89"/>
<path style="stroke:#000000; stroke-width:0.72; fill:none" d="M 276.5 1058.89L 160.5 1125.89"/>
<path style="stroke:#000000; stroke-width:0.72; fill:none" d="M 276.5 1037.89L 276.5 1058.89"/>
<path style="stroke:#000000; stroke-width:0.72; fill:none" d="M 106.5 904.39L 160.5 934.39"/>
<path style="stroke:#000000; stroke-width:0.72; fill:none" d="M 213.5 904.39L 160.5 934.39"/>
</g>
</svg>